<mxfile host="app.diagrams.net" modified="2023-09-28T06:07:27.596Z" agent="Mozilla/5.0 (Windows NT 10.0; Win64; x64) AppleWebKit/537.36 (KHTML, like Gecko) Chrome/117.0.0.0 Safari/537.36" etag="cOJU9D70eFeODd7ZHEHG" version="21.8.2" type="device">
  <diagram name="Page-1" id="0783ab3e-0a74-02c8-0abd-f7b4e66b4bec">
    <mxGraphModel dx="880" dy="-616" grid="1" gridSize="10" guides="1" tooltips="1" connect="1" arrows="1" fold="1" page="1" pageScale="1" pageWidth="850" pageHeight="1100" background="none" math="0" shadow="0">
      <root>
        <mxCell id="0" />
        <mxCell id="1" parent="0" />
        <mxCell id="3HCPjBEFk6575z2NG5k7-16" value="" style="shape=table;startSize=0;container=1;collapsible=0;childLayout=tableLayout;movable=1;resizable=1;rotatable=1;deletable=1;editable=1;locked=0;connectable=1;strokeWidth=25;" parent="1" vertex="1">
          <mxGeometry x="825" y="1730" width="4300" height="12190" as="geometry" />
        </mxCell>
        <mxCell id="3HCPjBEFk6575z2NG5k7-17" value="" style="shape=tableRow;horizontal=0;startSize=0;swimlaneHead=0;swimlaneBody=0;strokeColor=#3700CC;top=0;left=0;bottom=0;right=0;collapsible=0;dropTarget=0;fillColor=#6a00ff;points=[[0,0.5],[1,0.5]];portConstraint=eastwest;fontColor=#ffffff;" parent="3HCPjBEFk6575z2NG5k7-16" vertex="1">
          <mxGeometry width="4300" height="370" as="geometry" />
        </mxCell>
        <mxCell id="3HCPjBEFk6575z2NG5k7-18" value="&lt;font style=&quot;font-size: 77px;&quot;&gt;&lt;b&gt;User&lt;/b&gt;&lt;/font&gt;" style="shape=partialRectangle;html=1;whiteSpace=wrap;connectable=0;strokeColor=#82b366;overflow=hidden;fillColor=#d5e8d4;top=0;left=0;bottom=0;right=0;pointerEvents=1;strokeWidth=1;" parent="3HCPjBEFk6575z2NG5k7-17" vertex="1">
          <mxGeometry width="1572" height="370" as="geometry">
            <mxRectangle width="1572" height="370" as="alternateBounds" />
          </mxGeometry>
        </mxCell>
        <mxCell id="3HCPjBEFk6575z2NG5k7-19" value="&lt;b&gt;&lt;font style=&quot;font-size: 77px;&quot;&gt;System&lt;/font&gt;&lt;/b&gt;" style="shape=partialRectangle;html=1;whiteSpace=wrap;connectable=0;strokeColor=#82b366;overflow=hidden;fillColor=#d5e8d4;top=0;left=0;bottom=0;right=0;pointerEvents=1;shadow=0;" parent="3HCPjBEFk6575z2NG5k7-17" vertex="1">
          <mxGeometry x="1572" width="2728" height="370" as="geometry">
            <mxRectangle width="2728" height="370" as="alternateBounds" />
          </mxGeometry>
        </mxCell>
        <mxCell id="3HCPjBEFk6575z2NG5k7-24" value="" style="shape=tableRow;horizontal=0;startSize=0;swimlaneHead=0;swimlaneBody=0;strokeColor=#2D7600;top=0;left=0;bottom=0;right=0;collapsible=0;dropTarget=0;fillColor=#60a917;points=[[0,0.5],[1,0.5]];portConstraint=eastwest;fontColor=#ffffff;" parent="3HCPjBEFk6575z2NG5k7-16" vertex="1">
          <mxGeometry y="370" width="4300" height="291" as="geometry" />
        </mxCell>
        <mxCell id="3HCPjBEFk6575z2NG5k7-25" value="&lt;font size=&quot;1&quot; style=&quot;&quot;&gt;&lt;b style=&quot;font-size: 78px;&quot;&gt;Storekeeper&lt;/b&gt;&lt;/font&gt;" style="shape=partialRectangle;html=1;whiteSpace=wrap;connectable=1;strokeColor=#b85450;overflow=hidden;fillColor=#f8cecc;top=0;left=0;bottom=0;right=0;pointerEvents=1;movable=1;resizable=1;rotatable=1;deletable=1;editable=1;locked=0;" parent="3HCPjBEFk6575z2NG5k7-24" vertex="1">
          <mxGeometry width="1572" height="291" as="geometry">
            <mxRectangle width="1572" height="291" as="alternateBounds" />
          </mxGeometry>
        </mxCell>
        <mxCell id="3HCPjBEFk6575z2NG5k7-26" value="&lt;font style=&quot;font-size: 77px;&quot;&gt;&lt;b&gt;Stocks Portfolio Management System&lt;/b&gt;&lt;/font&gt;" style="shape=partialRectangle;html=1;whiteSpace=wrap;connectable=0;strokeColor=#9673a6;overflow=hidden;fillColor=#e1d5e7;top=0;left=0;bottom=0;right=0;pointerEvents=1;" parent="3HCPjBEFk6575z2NG5k7-24" vertex="1">
          <mxGeometry x="1572" width="2728" height="291" as="geometry">
            <mxRectangle width="2728" height="291" as="alternateBounds" />
          </mxGeometry>
        </mxCell>
        <mxCell id="3HCPjBEFk6575z2NG5k7-37" style="shape=tableRow;horizontal=0;startSize=0;swimlaneHead=0;swimlaneBody=0;strokeColor=inherit;top=0;left=0;bottom=0;right=0;collapsible=0;dropTarget=0;fillColor=none;points=[[0,0.5],[1,0.5]];portConstraint=eastwest;strokeWidth=22;" parent="3HCPjBEFk6575z2NG5k7-16" vertex="1">
          <mxGeometry y="661" width="4300" height="11529" as="geometry" />
        </mxCell>
        <mxCell id="3HCPjBEFk6575z2NG5k7-38" style="shape=partialRectangle;html=1;whiteSpace=wrap;connectable=1;strokeColor=inherit;overflow=hidden;fillColor=none;top=0;left=0;bottom=0;right=0;pointerEvents=1;movable=1;resizable=1;rotatable=1;deletable=1;editable=1;locked=0;" parent="3HCPjBEFk6575z2NG5k7-37" vertex="1">
          <mxGeometry width="1572" height="11529" as="geometry">
            <mxRectangle width="1572" height="11529" as="alternateBounds" />
          </mxGeometry>
        </mxCell>
        <mxCell id="3HCPjBEFk6575z2NG5k7-39" style="shape=partialRectangle;html=1;whiteSpace=wrap;connectable=0;strokeColor=inherit;overflow=hidden;fillColor=none;top=0;left=0;bottom=0;right=0;pointerEvents=1;" parent="3HCPjBEFk6575z2NG5k7-37" vertex="1">
          <mxGeometry x="1572" width="2728" height="11529" as="geometry">
            <mxRectangle width="2728" height="11529" as="alternateBounds" />
          </mxGeometry>
        </mxCell>
        <mxCell id="N1TLo8EvrLNKOT9_IzSQ-5" value="" style="group" parent="1" vertex="1" connectable="0">
          <mxGeometry x="1570" y="2500" width="180" height="460" as="geometry" />
        </mxCell>
        <mxCell id="N1TLo8EvrLNKOT9_IzSQ-3" value="" style="ellipse;html=1;shape=startState;fillColor=#000000;strokeColor=#ff0000;" parent="N1TLo8EvrLNKOT9_IzSQ-5" vertex="1">
          <mxGeometry width="180" height="153.33333333333331" as="geometry" />
        </mxCell>
        <mxCell id="N1TLo8EvrLNKOT9_IzSQ-4" value="" style="edgeStyle=orthogonalEdgeStyle;html=1;verticalAlign=bottom;endArrow=open;endSize=8;strokeColor=#ff0000;rounded=0;strokeWidth=10;" parent="N1TLo8EvrLNKOT9_IzSQ-5" source="N1TLo8EvrLNKOT9_IzSQ-3" edge="1">
          <mxGeometry relative="1" as="geometry">
            <mxPoint x="90" y="460" as="targetPoint" />
          </mxGeometry>
        </mxCell>
        <mxCell id="qFImFdcbBw-usRHeJRBD-26" style="edgeStyle=orthogonalEdgeStyle;rounded=0;orthogonalLoop=1;jettySize=auto;html=1;exitX=1;exitY=0.5;exitDx=0;exitDy=0;entryX=0.75;entryY=0;entryDx=0;entryDy=0;strokeWidth=10;jumpStyle=arc;jumpSize=30;" parent="1" source="N1TLo8EvrLNKOT9_IzSQ-8" target="N1TLo8EvrLNKOT9_IzSQ-18" edge="1">
          <mxGeometry relative="1" as="geometry">
            <Array as="points">
              <mxPoint x="4860" y="10420" />
              <mxPoint x="4860" y="6240" />
              <mxPoint x="4083" y="6240" />
            </Array>
          </mxGeometry>
        </mxCell>
        <mxCell id="N1TLo8EvrLNKOT9_IzSQ-8" value="&lt;font style=&quot;font-size: 72px;&quot;&gt;Display Message &quot;Add Sucess&quot;&lt;/font&gt;" style="rounded=1;whiteSpace=wrap;html=1;arcSize=40;fontColor=#000000;fillColor=#ffffc0;strokeColor=#ff0000;" parent="1" vertex="1">
          <mxGeometry x="3230" y="10250" width="910" height="340" as="geometry" />
        </mxCell>
        <mxCell id="qFImFdcbBw-usRHeJRBD-39" style="edgeStyle=orthogonalEdgeStyle;rounded=0;orthogonalLoop=1;jettySize=auto;html=1;exitX=1;exitY=0.75;exitDx=0;exitDy=0;entryX=1;entryY=0;entryDx=0;entryDy=0;strokeWidth=10;" parent="1" source="N1TLo8EvrLNKOT9_IzSQ-9" target="qFImFdcbBw-usRHeJRBD-37" edge="1">
          <mxGeometry relative="1" as="geometry" />
        </mxCell>
        <mxCell id="N1TLo8EvrLNKOT9_IzSQ-9" value="&lt;font style=&quot;font-size: 72px;&quot;&gt;Item Issued to Customer&lt;/font&gt;" style="rounded=1;whiteSpace=wrap;html=1;arcSize=40;fontColor=#000000;fillColor=#ffffc0;strokeColor=#ff0000;" parent="1" vertex="1">
          <mxGeometry x="4090" y="11930" width="910" height="340" as="geometry" />
        </mxCell>
        <mxCell id="qFImFdcbBw-usRHeJRBD-18" style="edgeStyle=orthogonalEdgeStyle;rounded=0;orthogonalLoop=1;jettySize=auto;html=1;strokeWidth=10;jumpStyle=arc;jumpSize=30;" parent="1" source="N1TLo8EvrLNKOT9_IzSQ-10" target="qFImFdcbBw-usRHeJRBD-17" edge="1">
          <mxGeometry relative="1" as="geometry" />
        </mxCell>
        <mxCell id="N1TLo8EvrLNKOT9_IzSQ-10" value="&lt;font style=&quot;font-size: 72px;&quot;&gt;Enter Item Details&lt;/font&gt;" style="rounded=1;whiteSpace=wrap;html=1;arcSize=40;fontColor=#000000;fillColor=#ffffc0;strokeColor=#ff0000;" parent="1" vertex="1">
          <mxGeometry x="1100" y="7910" width="910" height="340" as="geometry" />
        </mxCell>
        <mxCell id="N1TLo8EvrLNKOT9_IzSQ-11" value="&lt;font style=&quot;font-size: 72px;&quot;&gt;Delete Item&lt;/font&gt;" style="rounded=1;whiteSpace=wrap;html=1;arcSize=40;fontColor=#000000;fillColor=#ffffc0;strokeColor=#ff0000;" parent="1" vertex="1">
          <mxGeometry x="3400" y="7260" width="910" height="340" as="geometry" />
        </mxCell>
        <mxCell id="qFImFdcbBw-usRHeJRBD-30" style="edgeStyle=orthogonalEdgeStyle;rounded=0;orthogonalLoop=1;jettySize=auto;html=1;strokeWidth=10;jumpStyle=arc;jumpSize=30;" parent="1" source="N1TLo8EvrLNKOT9_IzSQ-12" target="N1TLo8EvrLNKOT9_IzSQ-20" edge="1">
          <mxGeometry relative="1" as="geometry">
            <Array as="points">
              <mxPoint x="3240" y="7920" />
              <mxPoint x="3240" y="8490" />
              <mxPoint x="1780" y="8490" />
            </Array>
          </mxGeometry>
        </mxCell>
        <mxCell id="N1TLo8EvrLNKOT9_IzSQ-12" value="&lt;font style=&quot;font-size: 72px;&quot;&gt;Issue Item&lt;/font&gt;" style="rounded=1;whiteSpace=wrap;html=1;arcSize=40;fontColor=#000000;fillColor=#ffffc0;strokeColor=#ff0000;" parent="1" vertex="1">
          <mxGeometry x="3400" y="7750" width="910" height="340" as="geometry" />
        </mxCell>
        <mxCell id="N1TLo8EvrLNKOT9_IzSQ-13" value="&lt;font style=&quot;font-size: 72px;&quot;&gt;Add Exsisting Item&lt;/font&gt;" style="rounded=1;whiteSpace=wrap;html=1;arcSize=40;fontColor=#000000;fillColor=#ffffc0;strokeColor=#ff0000;" parent="1" vertex="1">
          <mxGeometry x="3400" y="8230" width="910" height="340" as="geometry" />
        </mxCell>
        <mxCell id="qFImFdcbBw-usRHeJRBD-24" style="edgeStyle=orthogonalEdgeStyle;rounded=0;orthogonalLoop=1;jettySize=auto;html=1;entryX=0.5;entryY=1;entryDx=0;entryDy=0;strokeWidth=10;jumpStyle=arc;jumpSize=30;" parent="1" source="N1TLo8EvrLNKOT9_IzSQ-14" target="N1TLo8EvrLNKOT9_IzSQ-10" edge="1">
          <mxGeometry relative="1" as="geometry" />
        </mxCell>
        <mxCell id="N1TLo8EvrLNKOT9_IzSQ-14" value="&lt;font style=&quot;font-size: 72px;&quot;&gt;Display Error Mesage &quot;Please Enter Valid Details&quot;&lt;/font&gt;" style="rounded=1;whiteSpace=wrap;html=1;arcSize=40;fontColor=#000000;fillColor=#ffffc0;strokeColor=#ff0000;" parent="1" vertex="1">
          <mxGeometry x="2460" y="10710" width="910" height="340" as="geometry" />
        </mxCell>
        <mxCell id="N1TLo8EvrLNKOT9_IzSQ-35" style="edgeStyle=orthogonalEdgeStyle;rounded=0;orthogonalLoop=1;jettySize=auto;html=1;exitX=0;exitY=0.5;exitDx=0;exitDy=0;strokeWidth=10;jumpStyle=arc;jumpSize=30;" parent="1" source="N1TLo8EvrLNKOT9_IzSQ-15" target="N1TLo8EvrLNKOT9_IzSQ-24" edge="1">
          <mxGeometry relative="1" as="geometry" />
        </mxCell>
        <mxCell id="N1TLo8EvrLNKOT9_IzSQ-15" value="&lt;font style=&quot;font-size: 72px;&quot;&gt;Display Error Masage &quot;Login Again&quot;&lt;/font&gt;" style="rounded=1;whiteSpace=wrap;html=1;arcSize=40;fontColor=#000000;fillColor=#ffffc0;strokeColor=#ff0000;" parent="1" vertex="1">
          <mxGeometry x="2480" y="4170" width="910" height="340" as="geometry" />
        </mxCell>
        <mxCell id="N1TLo8EvrLNKOT9_IzSQ-36" style="edgeStyle=orthogonalEdgeStyle;rounded=0;orthogonalLoop=1;jettySize=auto;html=1;entryX=0.5;entryY=0;entryDx=0;entryDy=0;strokeWidth=10;jumpStyle=arc;jumpSize=30;" parent="1" source="N1TLo8EvrLNKOT9_IzSQ-16" target="N1TLo8EvrLNKOT9_IzSQ-23" edge="1">
          <mxGeometry relative="1" as="geometry">
            <Array as="points">
              <mxPoint x="4475" y="4580" />
              <mxPoint x="1515" y="4580" />
            </Array>
          </mxGeometry>
        </mxCell>
        <mxCell id="N1TLo8EvrLNKOT9_IzSQ-16" value="&lt;font style=&quot;font-size: 72px;&quot;&gt;Display SK Activites&lt;/font&gt;" style="rounded=1;whiteSpace=wrap;html=1;arcSize=40;fontColor=#000000;fillColor=#ffffc0;strokeColor=#ff0000;" parent="1" vertex="1">
          <mxGeometry x="4020" y="4160" width="910" height="340" as="geometry" />
        </mxCell>
        <mxCell id="qFImFdcbBw-usRHeJRBD-16" style="edgeStyle=orthogonalEdgeStyle;rounded=0;orthogonalLoop=1;jettySize=auto;html=1;exitX=0;exitY=0.5;exitDx=0;exitDy=0;entryX=0.5;entryY=0;entryDx=0;entryDy=0;strokeWidth=10;jumpStyle=arc;jumpSize=30;" parent="1" source="N1TLo8EvrLNKOT9_IzSQ-18" target="N1TLo8EvrLNKOT9_IzSQ-10" edge="1">
          <mxGeometry relative="1" as="geometry">
            <Array as="points">
              <mxPoint x="3250" y="6960" />
              <mxPoint x="3250" y="7240" />
              <mxPoint x="1940" y="7240" />
              <mxPoint x="1940" y="7670" />
              <mxPoint x="1555" y="7670" />
            </Array>
          </mxGeometry>
        </mxCell>
        <mxCell id="N1TLo8EvrLNKOT9_IzSQ-18" value="&lt;font style=&quot;font-size: 72px;&quot;&gt;Add Item&lt;/font&gt;" style="rounded=1;whiteSpace=wrap;html=1;arcSize=40;fontColor=#000000;fillColor=#ffffc0;strokeColor=#ff0000;" parent="1" vertex="1">
          <mxGeometry x="3400" y="6790" width="910" height="340" as="geometry" />
        </mxCell>
        <mxCell id="N1TLo8EvrLNKOT9_IzSQ-19" value="&lt;font style=&quot;font-size: 72px;&quot;&gt;View Item Details&lt;/font&gt;" style="rounded=1;whiteSpace=wrap;html=1;arcSize=40;fontColor=#000000;fillColor=#ffffc0;strokeColor=#ff0000;" parent="1" vertex="1">
          <mxGeometry x="3400" y="8670" width="910" height="340" as="geometry" />
        </mxCell>
        <mxCell id="qFImFdcbBw-usRHeJRBD-41" style="edgeStyle=orthogonalEdgeStyle;rounded=0;orthogonalLoop=1;jettySize=auto;html=1;exitX=1;exitY=0.5;exitDx=0;exitDy=0;entryX=0.5;entryY=0;entryDx=0;entryDy=0;strokeWidth=10;jumpStyle=arc;jumpSize=30;" parent="1" source="N1TLo8EvrLNKOT9_IzSQ-20" target="qFImFdcbBw-usRHeJRBD-27" edge="1">
          <mxGeometry relative="1" as="geometry">
            <Array as="points">
              <mxPoint x="3510" y="11340" />
              <mxPoint x="3510" y="10620" />
              <mxPoint x="4305" y="10620" />
            </Array>
          </mxGeometry>
        </mxCell>
        <mxCell id="N1TLo8EvrLNKOT9_IzSQ-20" value="&lt;font style=&quot;font-size: 72px;&quot;&gt;Enter Item Issue Details&lt;/font&gt;" style="rounded=1;whiteSpace=wrap;html=1;arcSize=40;fontColor=#000000;fillColor=#ffffc0;strokeColor=#ff0000;" parent="1" vertex="1">
          <mxGeometry x="1110" y="11170" width="910" height="340" as="geometry" />
        </mxCell>
        <mxCell id="N1TLo8EvrLNKOT9_IzSQ-21" value="&lt;font style=&quot;font-size: 72px;&quot;&gt;Manage Item&lt;/font&gt;" style="rounded=1;whiteSpace=wrap;html=1;arcSize=40;fontColor=#000000;fillColor=#ffffc0;strokeColor=#ff0000;" parent="1" vertex="1">
          <mxGeometry x="3390" y="9090" width="910" height="340" as="geometry" />
        </mxCell>
        <mxCell id="qFImFdcbBw-usRHeJRBD-38" style="edgeStyle=orthogonalEdgeStyle;rounded=0;orthogonalLoop=1;jettySize=auto;html=1;exitX=0;exitY=0.75;exitDx=0;exitDy=0;entryX=0;entryY=0;entryDx=0;entryDy=0;strokeWidth=10;" parent="1" source="N1TLo8EvrLNKOT9_IzSQ-22" target="qFImFdcbBw-usRHeJRBD-37" edge="1">
          <mxGeometry relative="1" as="geometry" />
        </mxCell>
        <mxCell id="N1TLo8EvrLNKOT9_IzSQ-22" value="&lt;font style=&quot;font-size: 72px;&quot;&gt;Display Message &quot;Item Is not in the System&quot;&lt;/font&gt;" style="rounded=1;whiteSpace=wrap;html=1;arcSize=40;fontColor=#000000;fillColor=#ffffc0;strokeColor=#ff0000;" parent="1" vertex="1">
          <mxGeometry x="2940" y="11940" width="910" height="340" as="geometry" />
        </mxCell>
        <mxCell id="N1TLo8EvrLNKOT9_IzSQ-38" style="edgeStyle=orthogonalEdgeStyle;rounded=0;orthogonalLoop=1;jettySize=auto;html=1;entryX=0.5;entryY=0;entryDx=0;entryDy=0;strokeWidth=10;jumpStyle=arc;jumpSize=30;" parent="1" source="N1TLo8EvrLNKOT9_IzSQ-23" target="N1TLo8EvrLNKOT9_IzSQ-37" edge="1">
          <mxGeometry relative="1" as="geometry" />
        </mxCell>
        <mxCell id="N1TLo8EvrLNKOT9_IzSQ-23" value="&lt;font style=&quot;font-size: 72px;&quot;&gt;Select Activity&lt;/font&gt;" style="rounded=1;whiteSpace=wrap;html=1;arcSize=40;fontColor=#000000;fillColor=#ffffc0;strokeColor=#ff0000;" parent="1" vertex="1">
          <mxGeometry x="1060" y="4730" width="910" height="340" as="geometry" />
        </mxCell>
        <mxCell id="N1TLo8EvrLNKOT9_IzSQ-29" style="edgeStyle=orthogonalEdgeStyle;rounded=0;orthogonalLoop=1;jettySize=auto;html=1;exitX=1;exitY=0.5;exitDx=0;exitDy=0;entryX=0.5;entryY=0;entryDx=0;entryDy=0;strokeWidth=10;jumpStyle=arc;jumpSize=30;" parent="1" source="N1TLo8EvrLNKOT9_IzSQ-24" target="N1TLo8EvrLNKOT9_IzSQ-28" edge="1">
          <mxGeometry relative="1" as="geometry" />
        </mxCell>
        <mxCell id="N1TLo8EvrLNKOT9_IzSQ-24" value="&lt;font style=&quot;font-size: 72px;&quot;&gt;Login System&lt;/font&gt;" style="rounded=1;whiteSpace=wrap;html=1;arcSize=40;fontColor=#000000;fillColor=#ffffc0;strokeColor=#ff0000;" parent="1" vertex="1">
          <mxGeometry x="1205" y="2960" width="910" height="340" as="geometry" />
        </mxCell>
        <mxCell id="N1TLo8EvrLNKOT9_IzSQ-27" style="edgeStyle=orthogonalEdgeStyle;rounded=0;orthogonalLoop=1;jettySize=auto;html=1;entryX=0;entryY=0.75;entryDx=0;entryDy=0;strokeWidth=10;" parent="1" source="N1TLo8EvrLNKOT9_IzSQ-25" target="N1TLo8EvrLNKOT9_IzSQ-24" edge="1">
          <mxGeometry relative="1" as="geometry" />
        </mxCell>
        <mxCell id="N1TLo8EvrLNKOT9_IzSQ-25" value="&lt;font style=&quot;font-size: 52px;&quot;&gt;Uname,Password&lt;/font&gt;" style="html=1;whiteSpace=wrap;fillColor=#f8cecc;strokeColor=#b85450;" parent="1" vertex="1">
          <mxGeometry x="890" y="2570" width="470" height="250" as="geometry" />
        </mxCell>
        <mxCell id="N1TLo8EvrLNKOT9_IzSQ-33" style="edgeStyle=orthogonalEdgeStyle;rounded=0;orthogonalLoop=1;jettySize=auto;html=1;exitX=0;exitY=0.5;exitDx=0;exitDy=0;entryX=0.5;entryY=0;entryDx=0;entryDy=0;strokeWidth=10;" parent="1" source="N1TLo8EvrLNKOT9_IzSQ-28" target="N1TLo8EvrLNKOT9_IzSQ-15" edge="1">
          <mxGeometry relative="1" as="geometry" />
        </mxCell>
        <mxCell id="N1TLo8EvrLNKOT9_IzSQ-34" style="edgeStyle=orthogonalEdgeStyle;rounded=0;orthogonalLoop=1;jettySize=auto;html=1;exitX=1;exitY=0.5;exitDx=0;exitDy=0;entryX=0.5;entryY=0;entryDx=0;entryDy=0;strokeWidth=10;" parent="1" source="N1TLo8EvrLNKOT9_IzSQ-28" target="N1TLo8EvrLNKOT9_IzSQ-16" edge="1">
          <mxGeometry relative="1" as="geometry" />
        </mxCell>
        <mxCell id="N1TLo8EvrLNKOT9_IzSQ-28" value="&lt;font style=&quot;font-size: 72px;&quot;&gt;If User Name And Password Mached&lt;/font&gt;" style="rhombus;whiteSpace=wrap;html=1;fillColor=#d5e8d4;strokeColor=#82b366;" parent="1" vertex="1">
          <mxGeometry x="3280" y="3260" width="790" height="760" as="geometry" />
        </mxCell>
        <mxCell id="N1TLo8EvrLNKOT9_IzSQ-30" value="&lt;font style=&quot;font-size: 48px;&quot;&gt;Yes&lt;/font&gt;" style="text;html=1;strokeColor=none;fillColor=none;align=center;verticalAlign=middle;whiteSpace=wrap;rounded=0;" parent="1" vertex="1">
          <mxGeometry x="4050" y="3380" width="280" height="210" as="geometry" />
        </mxCell>
        <mxCell id="N1TLo8EvrLNKOT9_IzSQ-31" value="&lt;font style=&quot;font-size: 48px;&quot;&gt;No&lt;/font&gt;" style="text;html=1;strokeColor=none;fillColor=none;align=center;verticalAlign=middle;whiteSpace=wrap;rounded=0;" parent="1" vertex="1">
          <mxGeometry x="3030" y="3360" width="330" height="270" as="geometry" />
        </mxCell>
        <mxCell id="N1TLo8EvrLNKOT9_IzSQ-37" value="&lt;font style=&quot;font-size: 52px;&quot;&gt;If Selected SK Activity&lt;/font&gt;" style="rhombus;whiteSpace=wrap;html=1;fillColor=#d5e8d4;strokeColor=#82b366;" parent="1" vertex="1">
          <mxGeometry x="2880" y="5140" width="890" height="820" as="geometry" />
        </mxCell>
        <mxCell id="N1TLo8EvrLNKOT9_IzSQ-43" style="edgeStyle=orthogonalEdgeStyle;rounded=0;orthogonalLoop=1;jettySize=auto;html=1;exitX=1;exitY=1;exitDx=0;exitDy=0;entryX=0.5;entryY=0;entryDx=0;entryDy=0;strokeWidth=10;" parent="1" source="N1TLo8EvrLNKOT9_IzSQ-39" target="N1TLo8EvrLNKOT9_IzSQ-41" edge="1">
          <mxGeometry relative="1" as="geometry" />
        </mxCell>
        <mxCell id="N1TLo8EvrLNKOT9_IzSQ-39" value="&lt;font style=&quot;font-size: 48px;&quot;&gt;No&lt;/font&gt;" style="text;html=1;strokeColor=none;fillColor=none;align=center;verticalAlign=middle;whiteSpace=wrap;rounded=0;" parent="1" vertex="1">
          <mxGeometry x="2570" y="5280" width="330" height="270" as="geometry" />
        </mxCell>
        <mxCell id="N1TLo8EvrLNKOT9_IzSQ-40" value="&lt;font style=&quot;font-size: 48px;&quot;&gt;Yes&lt;/font&gt;" style="text;html=1;strokeColor=none;fillColor=none;align=center;verticalAlign=middle;whiteSpace=wrap;rounded=0;" parent="1" vertex="1">
          <mxGeometry x="3790" y="5290" width="280" height="210" as="geometry" />
        </mxCell>
        <mxCell id="N1TLo8EvrLNKOT9_IzSQ-47" style="edgeStyle=orthogonalEdgeStyle;rounded=0;orthogonalLoop=1;jettySize=auto;html=1;exitX=0;exitY=0.5;exitDx=0;exitDy=0;entryX=0.5;entryY=0;entryDx=0;entryDy=0;strokeWidth=10;jumpStyle=arc;jumpSize=30;" parent="1" source="N1TLo8EvrLNKOT9_IzSQ-41" target="N1TLo8EvrLNKOT9_IzSQ-46" edge="1">
          <mxGeometry relative="1" as="geometry" />
        </mxCell>
        <mxCell id="qFImFdcbBw-usRHeJRBD-3" style="edgeStyle=orthogonalEdgeStyle;rounded=0;orthogonalLoop=1;jettySize=auto;html=1;exitX=1;exitY=0.5;exitDx=0;exitDy=0;entryX=0.25;entryY=1;entryDx=0;entryDy=0;strokeWidth=10;jumpStyle=arc;jumpSize=30;" parent="1" source="N1TLo8EvrLNKOT9_IzSQ-41" target="N1TLo8EvrLNKOT9_IzSQ-23" edge="1">
          <mxGeometry relative="1" as="geometry">
            <Array as="points">
              <mxPoint x="3400" y="6780" />
              <mxPoint x="3400" y="6180" />
              <mxPoint x="1288" y="6180" />
            </Array>
          </mxGeometry>
        </mxCell>
        <mxCell id="N1TLo8EvrLNKOT9_IzSQ-41" value="&lt;font style=&quot;font-size: 58px;&quot;&gt;If SK want log out System&lt;/font&gt;" style="rhombus;whiteSpace=wrap;html=1;fillColor=#d5e8d4;strokeColor=#82b366;strokeWidth=1;" parent="1" vertex="1">
          <mxGeometry x="2490" y="6370" width="890" height="820" as="geometry" />
        </mxCell>
        <mxCell id="N1TLo8EvrLNKOT9_IzSQ-45" value="&lt;font style=&quot;font-size: 48px;&quot;&gt;Yes&lt;/font&gt;" style="text;html=1;strokeColor=none;fillColor=none;align=center;verticalAlign=middle;whiteSpace=wrap;rounded=0;" parent="1" vertex="1">
          <mxGeometry x="2400" y="6500" width="280" height="210" as="geometry" />
        </mxCell>
        <mxCell id="N1TLo8EvrLNKOT9_IzSQ-46" value="" style="ellipse;html=1;shape=endState;fillColor=#000000;strokeColor=#ff0000;" parent="1" vertex="1">
          <mxGeometry x="1410" y="7350" width="270" height="270" as="geometry" />
        </mxCell>
        <mxCell id="qFImFdcbBw-usRHeJRBD-4" value="v" style="rounded=0;whiteSpace=wrap;html=1;fillColor=#050505;" parent="1" vertex="1">
          <mxGeometry x="3760" y="5540" width="900" height="20" as="geometry" />
        </mxCell>
        <mxCell id="qFImFdcbBw-usRHeJRBD-5" value="" style="rounded=0;whiteSpace=wrap;html=1;fillColor=#050505;rotation=90;" parent="1" vertex="1">
          <mxGeometry x="2788.75" y="7391.25" width="3722.5" height="20" as="geometry" />
        </mxCell>
        <mxCell id="qFImFdcbBw-usRHeJRBD-9" value="" style="endArrow=classic;html=1;rounded=0;strokeWidth=10;" parent="1" edge="1">
          <mxGeometry width="50" height="50" relative="1" as="geometry">
            <mxPoint x="4660" y="6960" as="sourcePoint" />
            <mxPoint x="4310" y="6960" as="targetPoint" />
          </mxGeometry>
        </mxCell>
        <mxCell id="qFImFdcbBw-usRHeJRBD-10" value="" style="endArrow=classic;html=1;rounded=0;strokeWidth=10;" parent="1" edge="1">
          <mxGeometry width="50" height="50" relative="1" as="geometry">
            <mxPoint x="4660" y="7450" as="sourcePoint" />
            <mxPoint x="4310" y="7450" as="targetPoint" />
          </mxGeometry>
        </mxCell>
        <mxCell id="qFImFdcbBw-usRHeJRBD-11" value="" style="endArrow=classic;html=1;rounded=0;strokeWidth=10;" parent="1" edge="1">
          <mxGeometry width="50" height="50" relative="1" as="geometry">
            <mxPoint x="4660" y="7930" as="sourcePoint" />
            <mxPoint x="4310" y="7930" as="targetPoint" />
          </mxGeometry>
        </mxCell>
        <mxCell id="qFImFdcbBw-usRHeJRBD-12" value="" style="endArrow=classic;html=1;rounded=0;strokeWidth=10;" parent="1" edge="1">
          <mxGeometry width="50" height="50" relative="1" as="geometry">
            <mxPoint x="4660" y="8410" as="sourcePoint" />
            <mxPoint x="4310" y="8410" as="targetPoint" />
          </mxGeometry>
        </mxCell>
        <mxCell id="qFImFdcbBw-usRHeJRBD-13" value="" style="endArrow=classic;html=1;rounded=0;strokeWidth=10;" parent="1" edge="1">
          <mxGeometry width="50" height="50" relative="1" as="geometry">
            <mxPoint x="4660" y="8830" as="sourcePoint" />
            <mxPoint x="4310" y="8830" as="targetPoint" />
          </mxGeometry>
        </mxCell>
        <mxCell id="qFImFdcbBw-usRHeJRBD-14" value="" style="endArrow=classic;html=1;rounded=0;strokeWidth=10;" parent="1" edge="1">
          <mxGeometry width="50" height="50" relative="1" as="geometry">
            <mxPoint x="4650" y="9260" as="sourcePoint" />
            <mxPoint x="4300" y="9260" as="targetPoint" />
          </mxGeometry>
        </mxCell>
        <mxCell id="qFImFdcbBw-usRHeJRBD-23" style="edgeStyle=orthogonalEdgeStyle;rounded=0;orthogonalLoop=1;jettySize=auto;html=1;exitX=0;exitY=0.5;exitDx=0;exitDy=0;strokeWidth=10;" parent="1" source="qFImFdcbBw-usRHeJRBD-17" target="N1TLo8EvrLNKOT9_IzSQ-14" edge="1">
          <mxGeometry relative="1" as="geometry" />
        </mxCell>
        <mxCell id="qFImFdcbBw-usRHeJRBD-25" style="edgeStyle=orthogonalEdgeStyle;rounded=0;orthogonalLoop=1;jettySize=auto;html=1;exitX=1;exitY=0.5;exitDx=0;exitDy=0;strokeWidth=10;" parent="1" source="qFImFdcbBw-usRHeJRBD-17" target="N1TLo8EvrLNKOT9_IzSQ-8" edge="1">
          <mxGeometry relative="1" as="geometry" />
        </mxCell>
        <mxCell id="qFImFdcbBw-usRHeJRBD-17" value="&lt;font style=&quot;font-size: 58px;&quot;&gt;New Item Details Are Valid&lt;/font&gt;" style="rhombus;whiteSpace=wrap;html=1;fillColor=#d5e8d4;strokeColor=#82b366;strokeWidth=1;" parent="1" vertex="1">
          <mxGeometry x="2570" y="9450" width="890" height="820" as="geometry" />
        </mxCell>
        <mxCell id="qFImFdcbBw-usRHeJRBD-19" value="&lt;font style=&quot;font-size: 48px;&quot;&gt;Yes&lt;/font&gt;" style="text;html=1;strokeColor=none;fillColor=none;align=center;verticalAlign=middle;whiteSpace=wrap;rounded=0;" parent="1" vertex="1">
          <mxGeometry x="3300" y="9600" width="280" height="210" as="geometry" />
        </mxCell>
        <mxCell id="qFImFdcbBw-usRHeJRBD-20" value="&lt;font style=&quot;font-size: 48px;&quot;&gt;No&lt;/font&gt;" style="text;html=1;strokeColor=none;fillColor=none;align=center;verticalAlign=middle;whiteSpace=wrap;rounded=0;" parent="1" vertex="1">
          <mxGeometry x="3370" y="6490" width="330" height="270" as="geometry" />
        </mxCell>
        <mxCell id="qFImFdcbBw-usRHeJRBD-21" value="&lt;font style=&quot;font-size: 48px;&quot;&gt;No&lt;/font&gt;" style="text;html=1;strokeColor=none;fillColor=none;align=center;verticalAlign=middle;whiteSpace=wrap;rounded=0;" parent="1" vertex="1">
          <mxGeometry x="2420" y="9510" width="330" height="270" as="geometry" />
        </mxCell>
        <mxCell id="qFImFdcbBw-usRHeJRBD-33" style="edgeStyle=orthogonalEdgeStyle;rounded=0;orthogonalLoop=1;jettySize=auto;html=1;exitX=0.5;exitY=1;exitDx=0;exitDy=0;strokeWidth=10;" parent="1" source="qFImFdcbBw-usRHeJRBD-27" target="N1TLo8EvrLNKOT9_IzSQ-22" edge="1">
          <mxGeometry relative="1" as="geometry" />
        </mxCell>
        <mxCell id="qFImFdcbBw-usRHeJRBD-36" style="edgeStyle=orthogonalEdgeStyle;rounded=0;orthogonalLoop=1;jettySize=auto;html=1;exitX=1;exitY=0.5;exitDx=0;exitDy=0;entryX=0.5;entryY=0;entryDx=0;entryDy=0;strokeWidth=10;" parent="1" source="qFImFdcbBw-usRHeJRBD-27" target="N1TLo8EvrLNKOT9_IzSQ-9" edge="1">
          <mxGeometry relative="1" as="geometry" />
        </mxCell>
        <mxCell id="qFImFdcbBw-usRHeJRBD-27" value="&lt;span style=&quot;font-size: 58px;&quot;&gt;If Item Have in the System&lt;/span&gt;" style="rhombus;whiteSpace=wrap;html=1;fillColor=#d5e8d4;strokeColor=#82b366;strokeWidth=1;" parent="1" vertex="1">
          <mxGeometry x="3860" y="10770" width="890" height="820" as="geometry" />
        </mxCell>
        <mxCell id="qFImFdcbBw-usRHeJRBD-31" value="&lt;font style=&quot;font-size: 48px;&quot;&gt;No&lt;/font&gt;" style="text;html=1;strokeColor=none;fillColor=none;align=center;verticalAlign=middle;whiteSpace=wrap;rounded=0;" parent="1" vertex="1">
          <mxGeometry x="3850" y="11490" width="330" height="270" as="geometry" />
        </mxCell>
        <mxCell id="qFImFdcbBw-usRHeJRBD-32" value="&lt;font style=&quot;font-size: 48px;&quot;&gt;Yes&lt;/font&gt;" style="text;html=1;strokeColor=none;fillColor=none;align=center;verticalAlign=middle;whiteSpace=wrap;rounded=0;" parent="1" vertex="1">
          <mxGeometry x="4675" y="10920" width="280" height="210" as="geometry" />
        </mxCell>
        <mxCell id="qFImFdcbBw-usRHeJRBD-40" style="edgeStyle=orthogonalEdgeStyle;rounded=0;orthogonalLoop=1;jettySize=auto;html=1;strokeWidth=10;jumpStyle=arc;jumpSize=30;" parent="1" source="qFImFdcbBw-usRHeJRBD-37" target="N1TLo8EvrLNKOT9_IzSQ-20" edge="1">
          <mxGeometry relative="1" as="geometry">
            <Array as="points">
              <mxPoint x="3985" y="13000" />
              <mxPoint x="1565" y="13000" />
            </Array>
          </mxGeometry>
        </mxCell>
        <mxCell id="qFImFdcbBw-usRHeJRBD-37" value="v" style="rounded=0;whiteSpace=wrap;html=1;fillColor=#050505;" parent="1" vertex="1">
          <mxGeometry x="2960" y="12730" width="2050" height="20" as="geometry" />
        </mxCell>
      </root>
    </mxGraphModel>
  </diagram>
</mxfile>
